<svg width="48" height="48" viewBox="0 0 48 48" fill="none" xmlns="http://www.w3.org/2000/svg">
<rect width="48" height="48" rx="10" fill="#56D9B9"/>
<g clip-path="url(#clip0_19_4346)">
<path d="M21.5514 8C21.7806 8.15806 21.8832 8.38143 21.8832 8.65642C21.8832 9.13785 21.8913 9.61928 21.8808 10.0999C21.8712 10.537 21.6388 10.7878 21.2789 10.7773C20.9294 10.7668 20.7178 10.5257 20.709 10.0999C20.6993 9.61928 20.7065 9.13785 20.7065 8.65642C20.7065 8.38143 20.8091 8.15806 21.0392 8.00081H21.5514V8Z" fill="white"/>
<path d="M18.5255 25.1137C18.5255 24.8936 18.5255 24.7678 18.5255 24.6428C18.5255 21.2631 18.5223 17.8834 18.5279 14.5037C18.5295 13.4296 18.9688 12.5909 19.9338 12.0853C21.4584 11.2862 23.383 12.3974 23.4896 14.1263C23.5777 15.5521 23.5088 16.9786 23.5305 18.4052C23.5361 18.7632 23.5329 18.7632 23.8671 18.6205C25.4406 17.9503 27.1599 18.9809 27.3194 20.697C27.3387 20.9067 27.3507 20.9808 27.5912 20.8704C29.1863 20.1373 30.8359 21.0389 31.1228 22.7864C31.1629 23.0316 31.3 23.1049 31.534 23.0066C33.0859 22.3558 34.7876 23.3775 34.9551 25.0524C34.9864 25.3629 34.9968 25.6726 34.9968 25.983C34.9968 28.1394 35.0064 30.2965 34.9928 32.4529C34.9864 33.5423 34.9078 34.6495 34.3595 35.6059C33.8642 36.4696 33.5652 37.3897 33.2197 38.309C32.6354 39.8678 31.3681 40.6267 29.7922 40.9194C29.5526 40.9637 29.3049 40.9823 29.0612 40.9831C27.2481 40.9879 25.4342 41.0242 23.6226 40.9726C22.1558 40.9315 20.8789 40.3855 19.9379 39.1961C19.275 38.359 19.0201 37.3696 19.0738 36.3325C19.1171 35.5076 18.887 34.8786 18.3484 34.2487C17.4242 33.169 16.6466 31.9722 15.9236 30.7392C14.9185 29.0248 13.7161 27.4426 12.3799 25.983C11.6152 25.1468 12.1154 23.9791 12.8705 23.5831C14.3165 22.8251 15.6896 23.0267 17.0418 23.7928C17.5949 24.1065 18.0542 24.5379 18.5239 25.1137H18.5255ZM32.2178 37.647C32.1023 37.6736 32.0615 37.6833 32.0206 37.6921C31.6038 37.7873 31.1862 37.5921 31.1004 37.2615C31.021 36.9551 31.2367 36.6825 31.6727 36.539C31.7136 36.5252 31.7537 36.5107 31.7945 36.5011C32.5793 36.3245 33.0233 35.7729 33.3319 35.0785C33.6726 34.3125 33.8105 33.5012 33.8161 32.6682C33.8257 31.3699 33.8193 30.0715 33.8193 28.7732C33.8193 27.6144 33.8289 26.4556 33.8145 25.2968C33.8049 24.5291 33.2317 23.9799 32.4847 23.9815C31.74 23.9831 31.1814 24.5428 31.1685 25.3081C31.1605 25.7693 31.1701 26.2306 31.1645 26.6919C31.1613 26.9378 31.1966 27.1862 31.1293 27.4281C31.0499 27.7144 30.8599 27.8539 30.5642 27.8491C30.282 27.8442 30.1073 27.7047 30.0271 27.4338C29.9838 27.2862 29.9878 27.137 29.9878 26.987C29.9862 25.6782 29.995 24.3686 29.9806 23.0598C29.9726 22.338 29.4211 21.8018 28.719 21.7881C27.895 21.7719 27.3387 22.3364 27.3339 23.2138C27.3266 24.4694 27.3323 25.7242 27.3307 26.9797C27.3307 27.0975 27.3371 27.2184 27.3146 27.3321C27.2569 27.6176 27.0854 27.7837 26.7832 27.7918C26.4642 27.8007 26.267 27.6612 26.2061 27.3563C26.1732 27.1894 26.1604 27.016 26.1596 26.8451C26.1548 26.0403 26.158 25.2355 26.1572 24.4307C26.1564 23.2396 26.1628 22.0485 26.1483 20.8575C26.1411 20.2704 25.8197 19.8325 25.2947 19.6616C24.3472 19.3535 23.5064 20.0341 23.5208 20.9954C23.5521 23.0977 23.5321 25.2016 23.528 27.3039C23.528 27.5071 23.5168 27.7128 23.48 27.912C23.427 28.1982 23.185 28.3692 22.898 28.3531C22.6087 28.3377 22.4019 28.145 22.3698 27.8474C22.3562 27.72 22.361 27.5902 22.361 27.462C22.361 23.2025 22.3602 18.9422 22.3618 14.6828C22.3618 14.4562 22.3489 14.2328 22.2952 14.0126C22.1165 13.2844 21.3895 12.8361 20.7074 13.032C20.0709 13.2143 19.7038 13.7578 19.703 14.5352C19.7014 18.3874 19.7086 22.2388 19.6958 26.0911C19.6934 26.7854 19.687 27.4628 20.1046 28.0628C20.1342 28.1055 20.1471 28.1611 20.1615 28.2119C20.2336 28.4579 20.1615 28.6539 19.9571 28.803C19.6565 29.0216 19.291 28.9063 19.089 28.5144C18.7018 27.7628 18.3476 26.9959 17.9059 26.2709C17.4434 25.5113 16.835 24.9387 16.0174 24.6041C15.167 24.2557 14.3093 24.1444 13.4588 24.6137C13.1166 24.8032 13.1005 24.9629 13.3546 25.2661C14.557 26.704 15.7417 28.1611 16.6995 29.7756C18.0229 32.0069 19.5884 34.0431 21.331 35.9503C21.3815 36.0051 21.4272 36.0656 21.4648 36.1301C21.634 36.418 21.5835 36.6881 21.3254 36.9035C21.0945 37.0962 20.8701 37.0793 20.6072 36.8567C20.4981 36.7639 20.4212 36.6269 20.2657 36.5761C20.1719 37.7542 20.939 38.9187 22.0941 39.4259C22.7946 39.7332 23.5304 39.8291 24.2775 39.838C25.7275 39.8549 27.1784 39.8517 28.6292 39.8396C29.3802 39.8332 30.1193 39.7348 30.7926 39.3614C31.4691 38.9856 31.9557 38.4502 32.217 37.6446L32.2178 37.647Z" fill="white"/>
<path d="M25.9472 13.4577C26.2021 13.4577 26.4578 13.4497 26.7127 13.4594C27.0734 13.4739 27.3018 13.6779 27.3242 13.9884C27.3475 14.3101 27.1359 14.5859 26.7784 14.6182C26.2173 14.669 25.6522 14.6674 25.0911 14.6182C24.7184 14.5859 24.5212 14.3295 24.5468 13.9972C24.5709 13.6803 24.7937 13.4811 25.1504 13.4577C25.1713 13.4561 25.1929 13.4561 25.2145 13.4561C25.459 13.4561 25.7035 13.4561 25.948 13.4561V13.4577H25.9472Z" fill="white"/>
<path d="M16.1802 13.4602C16.4455 13.4602 16.7116 13.4481 16.9761 13.4634C17.3224 13.4828 17.522 13.6828 17.5388 13.9973C17.5556 14.3166 17.3905 14.5626 17.0531 14.6045C16.4527 14.6779 15.8451 14.6779 15.2439 14.6045C14.9321 14.5666 14.7542 14.3134 14.7646 14.0207C14.775 13.7288 14.9754 13.5167 15.288 13.4675C15.3193 13.4626 15.3513 13.4602 15.3834 13.4602C15.6487 13.4602 15.914 13.4602 16.1802 13.4602C16.1802 13.4602 16.1802 13.461 16.1802 13.4618V13.4602Z" fill="white"/>
<path d="M24.0803 11.8732C23.6082 11.8837 23.2884 11.3805 23.5377 11.0329C23.8992 10.5289 24.3553 10.1015 24.8378 9.7136C25.0542 9.53942 25.3075 9.60554 25.5063 9.79666C25.7083 9.99101 25.7676 10.2507 25.6033 10.4676C25.2218 10.97 24.7713 11.4127 24.2751 11.8038C24.2126 11.853 24.1172 11.8603 24.0803 11.8732Z" fill="white"/>
<path d="M18.6345 11.27C18.6353 11.524 18.5287 11.6844 18.3379 11.7949C18.144 11.907 17.938 11.9167 17.7672 11.7748C17.3071 11.3925 16.8783 10.974 16.5088 10.5014C16.3308 10.2732 16.3901 9.96437 16.6066 9.77728C16.8286 9.58536 17.0915 9.55068 17.3047 9.74664C17.7288 10.1361 18.1247 10.5571 18.5271 10.9692C18.6121 11.0563 18.6361 11.1756 18.6329 11.27H18.6345Z" fill="white"/>
</g>
<defs>
<clipPath id="clip0_19_4346">
<rect width="23" height="33" fill="white" transform="translate(12 8)"/>
</clipPath>
</defs>
</svg>
