<svg width="48" height="48" viewBox="0 0 48 48" fill="none" xmlns="http://www.w3.org/2000/svg">
<rect width="48" height="48" rx="10" fill="#56D9B9"/>
<g clip-path="url(#clip0_49_300)">
<path d="M38.6667 37.3333H14.6667C13.6058 37.3333 12.5884 36.9119 11.8382 36.1618C11.0881 35.4116 10.6667 34.3942 10.6667 33.3333V9.33333C10.6667 8.97971 10.5262 8.64057 10.2761 8.39052C10.0261 8.14048 9.68696 8 9.33333 8C8.97971 8 8.64057 8.14048 8.39052 8.39052C8.14048 8.64057 8 8.97971 8 9.33333V33.3333C8.00212 35.1008 8.70518 36.7953 9.95496 38.045C11.2047 39.2948 12.8992 39.9979 14.6667 40H38.6667C39.0203 40 39.3594 39.8595 39.6095 39.6095C39.8595 39.3594 40 39.0203 40 38.6667C40 38.313 39.8595 37.9739 39.6095 37.7239C39.3594 37.4738 39.0203 37.3333 38.6667 37.3333Z" fill="white"/>
<path d="M16.0002 34.6666C16.3538 34.6666 16.693 34.5261 16.943 34.276C17.1931 34.026 17.3335 33.6869 17.3335 33.3332V23.9999C17.3335 23.6463 17.1931 23.3071 16.943 23.0571C16.693 22.807 16.3538 22.6666 16.0002 22.6666C15.6466 22.6666 15.3074 22.807 15.0574 23.0571C14.8073 23.3071 14.6669 23.6463 14.6669 23.9999V33.3332C14.6669 33.6869 14.8073 34.026 15.0574 34.276C15.3074 34.5261 15.6466 34.6666 16.0002 34.6666Z" fill="white"/>
<path d="M21.3331 21.3333V33.3333C21.3331 33.6869 21.4736 34.0261 21.7237 34.2761C21.9737 34.5262 22.3128 34.6666 22.6665 34.6666C23.0201 34.6666 23.3592 34.5262 23.6093 34.2761C23.8593 34.0261 23.9998 33.6869 23.9998 33.3333V21.3333C23.9998 20.9797 23.8593 20.6406 23.6093 20.3905C23.3592 20.1405 23.0201 20 22.6665 20C22.3128 20 21.9737 20.1405 21.7237 20.3905C21.4736 20.6406 21.3331 20.9797 21.3331 21.3333Z" fill="white"/>
<path d="M28 25.3333V33.3333C28 33.6869 28.1405 34.0261 28.3905 34.2761C28.6406 34.5262 28.9797 34.6666 29.3333 34.6666C29.687 34.6666 30.0261 34.5262 30.2762 34.2761C30.5262 34.0261 30.6667 33.6869 30.6667 33.3333V25.3333C30.6667 24.9797 30.5262 24.6406 30.2762 24.3905C30.0261 24.1405 29.687 24 29.3333 24C28.9797 24 28.6406 24.1405 28.3905 24.3905C28.1405 24.6406 28 24.9797 28 25.3333Z" fill="white"/>
<path d="M34.6669 19.9999V33.3332C34.6669 33.6869 34.8073 34.026 35.0574 34.276C35.3074 34.5261 35.6466 34.6666 36.0002 34.6666C36.3538 34.6666 36.693 34.5261 36.943 34.276C37.1931 34.026 37.3336 33.6869 37.3336 33.3332V19.9999C37.3336 19.6463 37.1931 19.3071 36.943 19.0571C36.693 18.807 36.3538 18.6666 36.0002 18.6666C35.6466 18.6666 35.3074 18.807 35.0574 19.0571C34.8073 19.3071 34.6669 19.6463 34.6669 19.9999Z" fill="white"/>
<path d="M15.9998 19.9999C16.3534 19.9998 16.6925 19.8593 16.9425 19.6092L21.7238 14.8279C21.9779 14.5858 22.3155 14.4508 22.6665 14.4508C23.0175 14.4508 23.355 14.5858 23.6091 14.8279L26.5051 17.7239C27.2552 18.4738 28.2725 18.8951 29.3331 18.8951C30.3938 18.8951 31.411 18.4738 32.1611 17.7239L39.6091 10.2759C39.852 10.0244 39.9864 9.68764 39.9834 9.33804C39.9803 8.98845 39.8401 8.65403 39.5929 8.40682C39.3457 8.15961 39.0113 8.01938 38.6617 8.01635C38.3121 8.01331 37.9753 8.1477 37.7238 8.39058L30.2758 15.8372C30.0258 16.0872 29.6867 16.2276 29.3331 16.2276C28.9796 16.2276 28.6405 16.0872 28.3905 15.8372L25.4945 12.9426C24.7444 12.1927 23.7271 11.7714 22.6665 11.7714C21.6058 11.7714 20.5886 12.1927 19.8385 12.9426L15.0571 17.7239C14.8707 17.9104 14.7438 18.1479 14.6924 18.4065C14.6409 18.6651 14.6673 18.9332 14.7682 19.1768C14.8691 19.4204 15.04 19.6286 15.2592 19.7751C15.4784 19.9216 15.7361 19.9999 15.9998 19.9999Z" fill="white"/>
</g>
<defs>
<clipPath id="clip0_49_300">
<rect width="32" height="32" fill="white" transform="translate(8 8)"/>
</clipPath>
</defs>
</svg>
