<svg width="48" height="48" viewBox="0 0 48 48" fill="none" xmlns="http://www.w3.org/2000/svg">
<rect width="48" height="48" rx="10" fill="#56D9B9"/>
<g clip-path="url(#clip0_19_4355)">
<path d="M30.9841 19.3073C30.9841 20.6416 30.9931 21.9773 30.9815 23.3116C30.9712 24.4641 31.2863 25.4994 32.0263 26.3954C32.1283 26.5191 32.2251 26.6481 32.3194 26.7796C32.7378 27.361 32.7056 27.691 32.1735 28.1526C31.334 28.8797 30.4933 29.6042 29.6461 30.3223C29.1179 30.7697 28.6982 30.7568 28.192 30.3004C27.6276 29.7925 27.1201 29.2342 26.6913 28.6064C26.3272 28.0727 26.3065 28.0636 25.8713 28.52C23.9316 30.557 21.5127 31.1062 18.8381 30.6988C16.5239 30.3468 14.9755 28.8281 14.5015 26.5424C14.0611 24.4113 14.3633 22.4066 15.7348 20.6532C16.8274 19.257 18.3681 18.5699 20.025 18.1186C21.5359 17.7074 23.0882 17.5308 24.6483 17.4276C24.7761 17.4186 24.904 17.3902 25.0319 17.3876C25.418 17.3799 25.5652 17.1943 25.5407 16.8088C25.5045 16.2493 25.5781 15.6833 25.4658 15.1251C25.1907 13.7572 23.9948 12.9463 22.6104 13.1732C21.2673 13.3937 20.3285 14.0615 19.9578 15.4306C19.7899 16.052 19.5316 16.2054 18.895 16.132C17.8399 16.0108 16.7861 15.8818 15.7348 15.7362C15.0723 15.6446 14.8889 15.3558 15.0336 14.6932C15.5424 12.3649 16.9074 10.7302 19.1132 9.84704C21.7904 8.77441 24.5166 8.70608 27.2247 9.71941C29.7198 10.6541 30.9234 12.4035 30.9724 15.0619C30.9983 16.4762 30.9776 17.8917 30.9776 19.3073C30.9802 19.3073 30.9828 19.3073 30.9867 19.3073H30.9841ZM25.5342 21.9811C25.5342 21.6279 25.5226 21.2733 25.5381 20.9214C25.5523 20.5926 25.4244 20.4495 25.0874 20.4702C24.2518 20.5191 23.4137 20.5552 22.6052 20.7886C20.8528 21.294 19.8932 22.6231 19.9669 24.4087C20.0288 25.8939 20.765 26.8582 22.0293 26.9497C23.1722 27.0323 24.0271 26.4482 24.6509 25.52C25.3689 24.4487 25.5975 23.251 25.5342 21.9824V21.9811Z" fill="white"/>
<path d="M23.3788 39C19.9501 39.0026 17.2897 38.1311 14.7921 36.6923C12.873 35.5875 11.1451 34.2222 9.48429 32.768C9.39905 32.6945 9.31511 32.6184 9.2415 32.5333C8.99742 32.2523 8.90443 31.9377 9.12398 31.6077C9.3474 31.2725 9.68059 31.1526 10.0499 31.3202C10.5032 31.5252 10.9384 31.7701 11.3749 32.0099C13.2953 33.0606 15.235 34.0688 17.3013 34.8178C20.7843 36.0812 24.3203 36.1044 27.904 35.3412C29.9742 34.9003 31.9746 34.2531 33.9195 33.428C34.0809 33.3597 34.2475 33.2875 34.4193 33.2566C34.8777 33.1753 35.2561 33.321 35.477 33.7439C35.7068 34.1848 35.5493 34.5677 35.1993 34.8616C34.4929 35.4521 33.7025 35.9214 32.8915 36.352C29.7572 38.0189 26.4214 38.9304 23.3788 38.9987V39Z" fill="white"/>
<path d="M39 31.8667C38.8786 33.33 38.3685 34.7894 37.263 36.0064C37.1106 36.174 36.9389 36.3184 36.7232 36.4022C36.1873 36.6097 35.7327 36.2836 35.7688 35.7112C35.7882 35.4005 35.9406 35.1284 36.04 34.8409C36.2544 34.2183 36.4765 33.5981 36.5941 32.9471C36.6896 32.4198 36.6263 32.3038 36.0904 32.2677C35.2678 32.2122 34.4542 32.3579 33.6444 32.4765C33.2131 32.5397 32.8102 32.5526 32.6281 32.0833C32.4524 31.6295 32.7146 31.3175 33.0801 31.079C34.6621 30.0515 36.381 29.8942 38.1735 30.3235C38.8102 30.4757 39.0116 30.8753 38.9987 31.8654L39 31.8667Z" fill="white"/>
</g>
<defs>
<clipPath id="clip0_19_4355">
<rect width="30" height="30" fill="white" transform="translate(9 9)"/>
</clipPath>
</defs>
</svg>
