<svg width="195" height="54" viewBox="0 0 195 54" fill="none" xmlns="http://www.w3.org/2000/svg">
<path d="M59.784 25.7861V31.707H55V5.56172H59.784V18.1528L67.0675 5.56172H71.6377L64.3542 18.0467L72.2448 31.7082H67.1396L61.7838 22.4699L59.7852 25.7874L59.784 25.7861Z" fill="white"/>
<path d="M94.7012 31.707H89.6313L88.1324 28.0332H78.8503L77.3147 31.707H72.9949L83.8835 5.27612L94.7012 31.707ZM86.6322 24.1811L83.4901 16.4404L80.348 24.1811H86.6322Z" fill="white"/>
<path d="M110.372 27.6047L112.802 31.707H98.2V5.56172H102.984V27.606H110.371L110.372 27.6047Z" fill="white"/>
<path d="M122.55 31.707H117.766V5.56172H122.55V31.7082V31.707Z" fill="white"/>
<path d="M152.611 31.707H147.755L145.006 18.8303L139.472 31.9219L133.938 19.1526L131.296 31.7083H127.119L132.831 5.27744L139.936 21.2214L147.005 5.27744L152.61 31.7083L152.611 31.707Z" fill="white"/>
<path d="M176.926 31.707H171.856L170.357 28.0332H161.075L159.539 31.707H155.219L166.108 5.27612L176.926 31.707ZM168.857 24.1811L165.714 16.4404L162.572 24.1811H168.857Z" fill="white"/>
<path d="M187.994 9.37836V31.7082H183.21V9.37836H176.855L177.211 5.56172H193.992L194.349 9.37836H187.994Z" fill="white"/>
<path d="M61.1833 42.2541H57.3201L55.7656 46.268H55.0956L59.2517 35.5474L63.4006 46.268H62.7379L61.1833 42.2541ZM60.9528 41.6643L59.2517 37.2704L57.5507 41.6643H60.9528Z" fill="#222E50"/>
<path d="M64.7942 39.8378H65.4221V41.0105C65.5527 40.8362 65.7035 40.6687 65.876 40.5066C66.43 39.9863 66.997 39.7139 67.5771 39.688V40.3295C67.1826 40.3472 66.7722 40.5543 66.3502 40.952C65.7557 41.5063 65.4468 42.1724 65.4221 42.9501V46.2708H64.7942V39.8378Z" fill="#222E50"/>
<path d="M76.3636 46.268H75.7357V44.9577C75.6139 45.1103 75.4819 45.2574 75.3384 45.3963C74.5901 46.0991 73.6866 46.4505 72.6266 46.4505C71.5665 46.4505 70.6703 46.0991 69.9206 45.3963C69.1723 44.6935 68.7981 43.8463 68.7981 42.8547C68.7981 41.8632 69.1723 41.0105 69.9206 40.3064C70.6688 39.6022 71.5708 39.2521 72.6266 39.2521C73.6823 39.2521 74.5901 39.6035 75.3384 40.3064C75.4819 40.4466 75.6153 40.5924 75.7357 40.7449V39.8351H76.3636V46.268ZM75.7357 43.4391V42.2731C75.6197 41.697 75.3282 41.1903 74.8642 40.7531C74.2464 40.1729 73.4996 39.8814 72.6251 39.8814C71.7507 39.8814 71.0053 40.1715 70.3875 40.7531C69.7698 41.3347 69.4594 42.0348 69.4594 42.8561C69.4594 43.6774 69.7683 44.3761 70.3875 44.955C71.0053 45.5339 71.7521 45.8226 72.6251 45.8226C73.4981 45.8226 74.2449 45.5325 74.8642 44.9509C75.3282 44.5137 75.6197 44.0097 75.7357 43.4377V43.4391Z" fill="#222E50"/>
<path d="M78.4896 35.7899H79.1175V40.741C79.2336 40.5925 79.367 40.4481 79.5149 40.3092C80.2632 39.6064 81.1652 39.255 82.2209 39.255C83.2766 39.255 84.1844 39.6064 84.9298 40.3092C85.6752 41.012 86.0493 41.8619 86.0493 42.8576C86.0493 43.8532 85.6766 44.695 84.9298 45.3992C84.1829 46.1033 83.2809 46.4534 82.2209 46.4534C81.1608 46.4534 80.2632 46.102 79.5149 45.3992C79.367 45.2602 79.2336 45.1159 79.1175 44.9674V46.2709H78.4896V35.7899ZM79.1175 42.2406V43.4719C79.2379 44.0303 79.5265 44.5247 79.9818 44.9524C80.5996 45.5326 81.3464 45.8241 82.2209 45.8241C83.0953 45.8241 83.8407 45.5354 84.4585 44.9565C85.0762 44.3776 85.3866 43.6789 85.3866 42.8576C85.3866 42.0363 85.0777 41.3362 84.4585 40.7546C83.8407 40.1744 83.0939 39.8829 82.2209 39.8829C81.3479 39.8829 80.601 40.173 79.9818 40.7546C79.5265 41.1823 79.2379 41.678 79.1175 42.2419V42.2406Z" fill="#222E50"/>
<path d="M88.8625 37.728C88.9858 37.841 89.0467 37.9786 89.0467 38.1407C89.0467 38.3028 88.9858 38.4458 88.8625 38.5602C88.7392 38.6732 88.5913 38.7305 88.4202 38.7305C88.2491 38.7305 88.1012 38.6732 87.9779 38.5602C87.8546 38.4472 87.7937 38.3069 87.7937 38.1407C87.7937 37.9745 87.8546 37.8424 87.9779 37.728C88.1012 37.6149 88.2491 37.5577 88.4202 37.5577C88.5913 37.5577 88.7392 37.6149 88.8625 37.728ZM88.7335 39.8364V46.268H88.1055V39.8364H88.7335Z" fill="#222E50"/>
<path d="M96.8355 44.7235L97.4982 44.9469C97.3764 45.1035 97.2401 45.2547 97.0864 45.3991C96.3381 46.1019 95.4332 46.4533 94.3731 46.4533C93.3131 46.4533 92.4169 46.1019 91.6672 45.3991C90.9174 44.6962 90.5447 43.8463 90.5447 42.852C90.5447 41.8577 90.9189 41.0146 91.6672 40.3105C92.4154 39.6076 93.3174 39.2562 94.3731 39.2562C95.4289 39.2562 96.3367 39.6076 97.0864 40.3105C97.2401 40.4548 97.3764 40.6033 97.4982 40.7558L96.8355 40.9847C96.7659 40.9057 96.6919 40.828 96.6122 40.749C95.9944 40.1729 95.2476 39.8841 94.3731 39.8841C93.4987 39.8841 92.7606 40.1729 92.1414 40.7518C91.5236 41.3306 91.2132 42.0307 91.2132 42.8507C91.2132 43.6706 91.5221 44.3721 92.1414 44.9523C92.7591 45.5325 93.5031 45.824 94.3731 45.824C95.2432 45.824 95.993 45.5339 96.6122 44.9523C96.6905 44.8788 96.7659 44.8011 96.8355 44.7235Z" fill="#222E50"/>
<path d="M104.736 41.1932V46.2681H104.108V35.7899H104.736V40.2493L108.299 35.7899H109.108L105.761 40.0082L110.084 46.2695H109.31L105.349 40.4794L104.736 41.1932Z" fill="#222E50"/>
<path d="M112.552 45.064C113.143 45.5707 113.844 45.824 114.658 45.824C115.532 45.824 116.278 45.5339 116.897 44.9523C116.975 44.8788 117.051 44.8011 117.12 44.7235L117.783 44.9469C117.661 45.1035 117.525 45.2547 117.371 45.3991C116.623 46.1019 115.718 46.4533 114.658 46.4533C113.598 46.4533 112.702 46.1019 111.952 45.3991C111.202 44.6962 110.83 43.8463 110.83 42.852C110.83 41.8577 111.204 41.0146 111.952 40.3105C112.7 39.6076 113.602 39.2562 114.658 39.2562C115.564 39.2562 116.358 39.5109 117.036 40.0217C117.148 40.1089 117.26 40.2056 117.371 40.3105C117.413 40.35 117.452 40.3895 117.49 40.429L112.554 45.0654L112.552 45.064ZM116.555 40.4725C116.011 40.0789 115.379 39.8828 114.658 39.8828C113.789 39.8828 113.045 40.1715 112.426 40.7504C111.808 41.3293 111.498 42.0294 111.498 42.8493C111.498 43.5262 111.707 44.1201 112.126 44.6309L116.553 40.4725H116.555Z" fill="#222E50"/>
<path d="M121.777 45.6919L120.228 48.7238H119.615L121.462 45.0831L118.791 39.8365H119.503L121.777 44.447L124.051 39.8365H124.754L121.777 45.6973V45.6905V45.6919Z" fill="#222E50"/>
<path d="M129.754 44.5655V39.8365H130.382V44.4211C130.382 44.8052 130.52 45.1266 130.797 45.3841C131.074 45.6415 131.404 45.7709 131.79 45.7709C132.176 45.7709 132.508 45.6429 132.788 45.3841C133.043 45.1444 133.181 44.8542 133.2 44.5124H133.192V39.8365H133.82V44.5124C133.802 45.015 133.604 45.4426 133.227 45.7968C132.833 46.1727 132.353 46.3593 131.792 46.3593C131.23 46.3593 130.75 46.1713 130.356 45.7968C130.249 45.696 130.156 45.5911 130.078 45.4821C129.999 45.5911 129.903 45.696 129.792 45.7968C129.397 46.1727 128.917 46.3593 128.356 46.3593C127.795 46.3593 127.315 46.1713 126.921 45.7968C126.543 45.4426 126.346 45.015 126.327 44.5124V39.8365H126.955V44.5124H126.948C126.967 44.8529 127.106 45.143 127.367 45.3841C127.641 45.6415 127.972 45.7709 128.358 45.7709C128.743 45.7709 129.075 45.6429 129.355 45.3841C129.593 45.1607 129.727 44.8883 129.76 44.5655H129.754Z" fill="#222E50"/>
<path d="M139.112 39.2549C140.172 39.2549 141.076 39.6063 141.821 40.3091C142.566 41.012 142.94 41.8619 142.94 42.8575C142.94 43.8532 142.568 44.6949 141.821 45.3991C141.074 46.1033 140.172 46.4533 139.112 46.4533C138.052 46.4533 137.156 46.1019 136.406 45.3991C135.656 44.6963 135.284 43.8491 135.284 42.8575C135.284 41.866 135.658 41.0133 136.406 40.3091C137.154 39.6063 138.056 39.2549 139.112 39.2549ZM136.874 40.7545C136.257 41.3348 135.946 42.0362 135.946 42.8575C135.946 43.6788 136.255 44.3776 136.874 44.9564C137.492 45.5353 138.239 45.8241 139.112 45.8241C139.985 45.8241 140.732 45.5353 141.351 44.9564C141.969 44.3776 142.279 43.6788 142.279 42.8575C142.279 42.0362 141.97 41.3361 141.351 40.7545C140.733 40.1743 139.986 39.8828 139.112 39.8828C138.238 39.8828 137.492 40.1729 136.874 40.7545Z" fill="#222E50"/>
<path d="M144.614 39.8378H145.242V41.0105C145.372 40.8362 145.523 40.6687 145.696 40.5066C146.25 39.9863 146.817 39.7139 147.397 39.688V40.3295C147.002 40.3472 146.592 40.5543 146.17 40.952C145.575 41.5063 145.267 42.1724 145.242 42.9501V46.2708H144.614V39.8378Z" fill="#222E50"/>
<path d="M156.14 46.2679H155.512V44.9576C155.39 45.1102 155.258 45.2573 155.115 45.3962C154.366 46.099 153.463 46.4504 152.403 46.4504C151.343 46.4504 150.446 46.099 149.697 45.3962C148.948 44.6934 148.574 43.8462 148.574 42.8546C148.574 41.8631 148.948 41.0104 149.697 40.3062C150.445 39.6021 151.347 39.252 152.403 39.252C153.458 39.252 154.366 39.6034 155.115 40.3062C155.258 40.4465 155.392 40.5923 155.512 40.7448V35.787H156.14V46.2679ZM155.512 43.4389V42.273C155.396 41.6969 155.104 41.1902 154.64 40.753C154.023 40.1728 153.276 39.8813 152.401 39.8813C151.527 39.8813 150.781 40.1714 150.164 40.753C149.546 41.3346 149.236 42.0347 149.236 42.856C149.236 43.6773 149.544 44.376 150.164 44.9549C150.781 45.5338 151.528 45.8225 152.401 45.8225C153.274 45.8225 154.021 45.5324 154.64 44.9508C155.104 44.5136 155.396 44.0096 155.512 43.4376V43.4389Z" fill="#222E50"/>
<path d="M160.115 42.9608C159.58 42.6898 159.21 42.4582 159.005 42.2662C158.685 41.9652 158.524 41.6029 158.524 41.1793C158.524 40.7557 158.685 40.3852 159.005 40.0828C159.326 39.7791 159.712 39.6279 160.163 39.6279C160.614 39.6279 160.995 39.7668 161.292 40.0474C161.581 40.3225 161.724 40.6344 161.724 40.9845V41.0172L161.181 41.2201C161.134 40.8878 161.024 40.6399 160.85 40.4737C160.676 40.3076 160.447 40.2245 160.163 40.2245C159.878 40.2245 159.643 40.3171 159.445 40.5023C159.245 40.6876 159.144 40.9137 159.144 41.1806C159.144 41.4476 159.245 41.6682 159.445 41.8548C159.561 41.9638 159.807 42.13 160.184 42.352C160.779 42.6571 161.202 42.9281 161.453 43.1638C161.848 43.5397 162.046 43.9864 162.046 44.5067C162.046 45.027 161.849 45.4929 161.453 45.8661C161.057 46.2393 160.579 46.4259 160.016 46.4259C159.453 46.4259 158.975 46.2393 158.58 45.8661C158.186 45.4929 157.987 45.0842 157.987 44.6389L158.608 44.4877C158.608 44.8718 158.746 45.1932 159.023 45.4506C159.3 45.7081 159.63 45.8375 160.016 45.8375C160.402 45.8375 160.734 45.7094 161.009 45.4506C161.286 45.1932 161.424 44.8786 161.424 44.5081C161.424 44.1376 161.286 43.8352 161.012 43.5778C160.863 43.4389 160.564 43.2332 160.113 42.9622L160.115 42.9608Z" fill="#222E50"/>
<path d="M171.34 36.3797V46.2695H170.712V36.3797H167.889V35.7899H174.165V36.3797H171.34Z" fill="#222E50"/>
<path d="M178.391 39.2549C179.451 39.2549 180.355 39.6063 181.1 40.3091C181.845 41.012 182.219 41.8619 182.219 42.8575C182.219 43.8532 181.847 44.6949 181.1 45.3991C180.355 46.1019 179.451 46.4533 178.391 46.4533C177.331 46.4533 176.435 46.1019 175.685 45.3991C174.937 44.6963 174.563 43.8491 174.563 42.8575C174.563 41.866 174.937 41.0133 175.685 40.3091C176.433 39.6063 177.335 39.2549 178.391 39.2549ZM176.153 40.7545C175.536 41.3348 175.225 42.0362 175.225 42.8575C175.225 43.6788 175.534 44.3776 176.153 44.9564C176.771 45.5353 177.518 45.8241 178.391 45.8241C179.264 45.8241 180.011 45.5353 180.63 44.9564C181.248 44.3776 181.558 43.6788 181.558 42.8575C181.558 42.0362 181.249 41.3361 180.63 40.7545C180.012 40.1743 179.265 39.8828 178.391 39.8828C177.517 39.8828 176.771 40.1729 176.153 40.7545Z" fill="#222E50"/>
<path d="M187.302 39.2549C188.362 39.2549 189.266 39.6063 190.011 40.3091C190.757 41.012 191.131 41.8619 191.131 42.8575C191.131 43.8532 190.758 44.6949 190.011 45.3991C189.266 46.1019 188.362 46.4533 187.302 46.4533C186.242 46.4533 185.346 46.1019 184.596 45.3991C183.847 44.6963 183.474 43.8491 183.474 42.8575C183.474 41.866 183.848 41.0133 184.596 40.3091C185.345 39.6063 186.247 39.2549 187.302 39.2549ZM185.065 40.7545C184.447 41.3348 184.137 42.0362 184.137 42.8575C184.137 43.6788 184.445 44.3776 185.065 44.9564C185.682 45.5353 186.429 45.8241 187.302 45.8241C188.175 45.8241 188.922 45.5353 189.541 44.9564C190.159 44.3776 190.469 43.6788 190.469 42.8575C190.469 42.0362 190.161 41.3361 189.541 40.7545C188.924 40.1743 188.177 39.8828 187.302 39.8828C186.428 39.8828 185.682 40.1729 185.065 40.7545Z" fill="#222E50"/>
<path d="M193.431 35.7899V46.2681H192.803V35.7899H193.431Z" fill="#222E50"/>
<path d="M40.7872 35.0876C39.8503 37.1331 38.7651 39.0936 37.5341 40.9666C36.3513 42.7902 34.7362 44.5288 32.6925 46.1799C30.6464 47.831 28.391 49.2741 25.9277 50.5054C23.4632 51.738 20.9378 52.6625 18.3503 53.2775C15.7628 53.8951 13.2869 54.1158 10.9212 53.9433C8.55558 53.7721 6.47264 53.1063 4.67495 51.9473C2.87472 50.7895 1.53216 49.0268 0.645994 46.6605C0.0539481 45.0335 -0.131145 43.2949 0.0907133 41.4472C0.312572 39.5983 0.804465 37.7621 1.56893 35.9373C2.33339 34.115 3.20688 32.3396 4.19447 30.6137C5.17952 28.889 6.1164 27.3115 7.00256 25.8811C9.02338 22.764 10.9136 20.172 12.672 18.1011C12.6669 18.0694 12.6631 18.0365 12.6619 18.0035C12.6555 17.949 12.6505 17.8944 12.6467 17.8386C12.6238 17.5609 12.6162 17.2781 12.6238 16.9915C12.7379 12.8423 16.1469 9.47539 20.2963 9.41199C21.4563 9.39423 22.5593 9.6301 23.5545 10.0663C23.6166 10.093 23.6775 10.1221 23.7396 10.1513C23.7764 10.1678 23.8131 10.1855 23.8499 10.2046C23.9095 10.2337 23.9678 10.2629 24.0261 10.2933C24.0261 10.2933 24.0299 10.2933 24.0324 10.2971C24.111 10.3377 24.1871 10.3796 24.2632 10.4227C24.4204 10.5114 24.5738 10.6053 24.7246 10.7055C24.7893 10.7486 24.854 10.793 24.9186 10.8386C24.93 10.8462 24.9414 10.8551 24.9528 10.864C25.0048 10.8995 25.0568 10.9375 25.1075 10.9768C25.2406 11.077 25.3699 11.181 25.4954 11.2888C25.5347 11.323 25.574 11.356 25.6121 11.3915C25.621 11.3991 25.6298 11.4067 25.6387 11.4156C25.6805 11.4524 25.7211 11.4904 25.7617 11.5285C25.8073 11.5716 25.853 11.6147 25.8973 11.6591C25.9379 11.6984 25.9772 11.739 26.0165 11.7796C26.0241 11.7872 26.0317 11.7948 26.038 11.8024C26.0799 11.8442 26.1205 11.8874 26.1598 11.9305C26.2472 12.0256 26.3322 12.122 26.4146 12.2209C26.4526 12.2678 26.4919 12.3147 26.5287 12.3629C26.568 12.4111 26.6047 12.4593 26.6428 12.5087C26.6897 12.5709 26.7366 12.6355 26.7835 12.7002C26.8329 12.77 26.8811 12.841 26.928 12.9133C26.961 12.9615 26.9927 13.0096 27.0218 13.0591C27.0294 13.0692 27.037 13.0807 27.0421 13.0921C27.0738 13.1403 27.103 13.1884 27.1321 13.2379C27.1828 13.3241 27.2323 13.4116 27.2792 13.4991C27.3134 13.56 27.3451 13.6209 27.3755 13.6817C27.4174 13.7629 27.4579 13.8453 27.496 13.929C27.515 13.9709 27.5353 14.014 27.5543 14.0584C27.5682 14.0914 27.5834 14.1231 27.5961 14.156C27.6215 14.2144 27.6456 14.274 27.6697 14.3336C27.6823 14.3665 27.6963 14.4008 27.7077 14.4337C27.7888 14.6531 27.8598 14.8827 27.9245 15.1223C28.0145 15.4584 28.0893 15.8033 28.1476 16.1597C28.1565 16.2193 28.1641 16.2801 28.1704 16.3423C28.1742 16.379 28.1793 16.4158 28.1831 16.4539C28.1831 16.4539 28.1831 16.4564 28.1831 16.4589C28.1907 16.535 28.197 16.6111 28.2009 16.6872C28.2059 16.7544 28.2097 16.8203 28.211 16.8876C28.2135 16.9281 28.2148 16.97 28.2161 17.0106C28.2173 17.0778 28.2186 17.145 28.2186 17.2122C28.2186 19.4834 27.2488 21.5263 25.7008 22.953C25.4321 23.2015 25.2394 23.5122 25.1329 23.8533C25.0302 24.1754 25.0061 24.5229 25.0657 24.8653L26.2738 31.826L20.4193 36.3583L14.5445 31.8273L15.7235 24.8057C15.8325 24.1539 15.6386 23.4869 15.1898 23.0088C15.1606 22.9758 15.1277 22.9441 15.0947 22.9124C14.8716 22.7044 14.6611 22.4825 14.4659 22.2504C14.4393 22.22 14.4139 22.1896 14.3886 22.1579C14.3518 22.1135 14.3163 22.0691 14.2808 22.0234C14.244 21.9778 14.2098 21.9321 14.1756 21.8865C13.7293 22.168 13.2843 22.4901 12.8432 22.849C11.512 23.9345 10.404 25.1177 9.51654 26.3985C8.67728 27.6311 7.81647 28.889 6.92903 30.1698C6.0416 31.4519 5.35067 32.7467 4.85877 34.0516C4.36561 35.359 4.30476 36.6525 4.67495 37.9345C5.04387 39.2166 6.0416 40.4987 7.66814 41.7795C9.04747 42.865 10.6994 43.5422 12.6213 43.8135C14.5432 44.0849 16.5881 44.0722 18.7573 43.7755C20.9252 43.48 23.093 42.9994 25.2622 42.3337C27.4301 41.6692 29.4509 40.9413 31.3246 40.1525C33.1971 39.365 34.7983 38.6257 36.1294 37.9345C36.3754 37.7862 36.4996 37.601 36.4996 37.3791C36.4996 37.1572 36.4743 36.8008 36.4248 36.3075L34.3558 9.02141L39.7514 0L41.97 28.6177C42.1171 30.8851 41.7228 33.0421 40.7872 35.0876Z" fill="#222E50"/>
</svg>
