<svg width="25" height="24" viewBox="0 0 25 24" fill="none" xmlns="http://www.w3.org/2000/svg">
<path d="M8.5 21H3.909C3.80061 20.9997 3.69673 20.9566 3.62009 20.8799C3.54344 20.8033 3.50026 20.6994 3.5 20.591V3.409C3.50026 3.30061 3.54344 3.19673 3.62009 3.12009C3.69673 3.04344 3.80061 3.00026 3.909 3H8.5C8.89782 3 9.27936 2.84196 9.56066 2.56066C9.84196 2.27936 10 1.89782 10 1.5C10 1.10218 9.84196 0.720644 9.56066 0.43934C9.27936 0.158035 8.89782 0 8.5 0L3.909 0C3.0052 0.00105862 2.13872 0.36056 1.49964 0.999642C0.86056 1.63872 0.501059 2.5052 0.5 3.409L0.5 20.591C0.501059 21.4948 0.86056 22.3613 1.49964 23.0004C2.13872 23.6394 3.0052 23.9989 3.909 24H8.5C8.89782 24 9.27936 23.842 9.56066 23.5607C9.84196 23.2794 10 22.8978 10 22.5C10 22.1022 9.84196 21.7206 9.56066 21.4393C9.27936 21.158 8.89782 21 8.5 21Z" fill="#222E50"/>
<path d="M23.1821 8.81727L19.3001 4.93827C19.1608 4.79901 18.9954 4.68855 18.8134 4.6132C18.6313 4.53785 18.4363 4.4991 18.2393 4.49915C18.0423 4.49919 17.8472 4.53804 17.6652 4.61347C17.4832 4.6889 17.3179 4.79944 17.1786 4.93877C17.0394 5.0781 16.9289 5.2435 16.8535 5.42553C16.7782 5.60755 16.7394 5.80263 16.7395 5.99963C16.7396 6.39748 16.8977 6.77901 17.1791 7.06027L20.5911 10.4713L7.00012 10.4993C6.6023 10.4993 6.22077 10.6573 5.93946 10.9386C5.65816 11.2199 5.50012 11.6014 5.50012 11.9993C5.50012 12.3971 5.65816 12.7786 5.93946 13.0599C6.22077 13.3412 6.6023 13.4993 7.00012 13.4993L20.6461 13.4743L17.1791 16.9413C16.9143 17.2257 16.7702 17.6019 16.7773 17.9905C16.7843 18.3791 16.9419 18.7498 17.2169 19.0245C17.4918 19.2992 17.8627 19.4564 18.2513 19.4631C18.6399 19.4698 19.0159 19.3254 19.3001 19.0603L23.1791 15.1813C23.597 14.7634 23.9285 14.2673 24.1546 13.7214C24.3808 13.1754 24.4972 12.5902 24.4972 11.9993C24.4972 11.4083 24.3808 10.8232 24.1546 10.2772C23.9285 9.73122 23.597 9.23514 23.1791 8.81727H23.1821Z" fill="#222E50"/>
</svg>
