<svg width="25" height="25" viewBox="0 0 25 25" fill="none" xmlns="http://www.w3.org/2000/svg">
<path d="M12.5 0C9.44239 0.00898865 6.4935 1.1352 4.20831 3.16667L2.81977 1.77813C2.67409 1.63249 2.48851 1.53332 2.28647 1.49314C2.08444 1.45297 1.87503 1.4736 1.68472 1.55242C1.4944 1.63124 1.33173 1.76472 1.21727 1.93598C1.10281 2.10724 1.04169 2.30859 1.04165 2.51458V7.29167C1.04165 7.56793 1.15139 7.83289 1.34674 8.02824C1.5421 8.22359 1.80705 8.33333 2.08331 8.33333H6.8604C7.06639 8.33329 7.26774 8.27217 7.439 8.15771C7.61026 8.04325 7.74374 7.88058 7.82256 7.69027C7.90139 7.49995 7.92201 7.29054 7.88184 7.08851C7.84167 6.88648 7.74249 6.70089 7.59686 6.55521L6.41457 5.37292C7.79425 4.19431 9.48633 3.44143 11.2855 3.20561C13.0847 2.96979 14.9136 3.26118 16.5505 4.04441C18.1873 4.82764 19.5616 6.06906 20.5068 7.61805C21.4519 9.16704 21.9272 10.957 21.875 12.7708C21.808 15.1144 20.8653 17.3479 19.2327 19.0307C17.6002 20.7135 15.3964 21.7236 13.0559 21.8616C10.7154 21.9997 8.40815 21.2558 6.58909 19.7766C4.77004 18.2974 3.57125 16.1903 3.22915 13.8708C3.1803 13.4937 2.99647 13.147 2.71169 12.895C2.42691 12.643 2.06047 12.5026 1.68019 12.5C1.45953 12.4972 1.2408 12.5414 1.03861 12.6299C0.836426 12.7183 0.655439 12.8489 0.507741 13.0128C0.360042 13.1768 0.249033 13.3704 0.182129 13.5807C0.115225 13.791 0.0939663 14.0131 0.119773 14.2323C0.553326 17.301 2.10976 20.0998 4.4879 22.0872C6.86603 24.0745 9.8968 25.109 12.9937 24.9906C16.1268 24.8397 19.0913 23.5273 21.3093 21.3093C23.5273 19.0913 24.8397 16.1268 24.9906 12.9938C25.0552 11.3124 24.78 9.63533 24.1816 8.06278C23.5831 6.49023 22.6737 5.05452 21.5076 3.8415C20.3416 2.62849 18.9429 1.66309 17.3952 1.00304C15.8475 0.34299 14.1826 0.00184197 12.5 0Z" fill="#222E50"/>
<path d="M11.9792 7.29166C11.5648 7.29166 11.1674 7.45628 10.8743 7.7493C10.5813 8.04233 10.4167 8.43976 10.4167 8.85416V13.326C10.4168 13.8785 10.6364 14.4083 11.0271 14.7989L12.8948 16.6667C13.1895 16.9513 13.5842 17.1088 13.9939 17.1052C14.4036 17.1017 14.7955 16.9373 15.0852 16.6476C15.3749 16.3579 15.5392 15.966 15.5427 15.5563C15.5463 15.1467 15.3888 14.752 15.1042 14.4573L13.5417 12.8948V8.85416C13.5417 8.43976 13.3771 8.04233 13.084 7.7493C12.791 7.45628 12.3936 7.29166 11.9792 7.29166Z" fill="#222E50"/>
</svg>
